<svg width="20" height="20" viewBox="0 0 20 20" fill="none" xmlns="http://www.w3.org/2000/svg">
<mask id="mask0_518_243" style="mask-type:alpha" maskUnits="userSpaceOnUse" x="0" y="0" width="20" height="20">
<rect width="20" height="20" fill="#D9D9D9"/>
</mask>
<g mask="url(#mask0_518_243)">
<path d="M5.83366 7.49996C5.37533 7.49996 4.98296 7.33676 4.65658 7.01038C4.33019 6.68399 4.16699 6.29163 4.16699 5.83329C4.16699 5.37496 4.33019 4.9826 4.65658 4.65621C4.98296 4.32982 5.37533 4.16663 5.83366 4.16663C6.29199 4.16663 6.68435 4.32982 7.01074 4.65621C7.33713 4.9826 7.50033 5.37496 7.50033 5.83329C7.50033 6.29163 7.33713 6.68399 7.01074 7.01038C6.68435 7.33676 6.29199 7.49996 5.83366 7.49996ZM4.16699 18.3333C3.93088 18.3333 3.73296 18.2534 3.57324 18.0937C3.41352 17.934 3.33366 17.7361 3.33366 17.5C2.87533 17.5 2.48296 17.3368 2.15658 17.0104C1.83019 16.684 1.66699 16.2916 1.66699 15.8333V10.8333H4.16699V10.2083C4.16699 9.68051 4.34755 9.23607 4.70866 8.87496C5.06977 8.51385 5.51421 8.33329 6.04199 8.33329C6.31977 8.33329 6.57671 8.38885 6.81283 8.49996C7.04894 8.61107 7.26421 8.76385 7.45866 8.95829L8.62533 10.25C8.73644 10.3611 8.84408 10.4652 8.94824 10.5625C9.05241 10.6597 9.16699 10.75 9.29199 10.8333H15.0003V4.04163C15.0003 3.84718 14.9309 3.68051 14.792 3.54163C14.6531 3.40274 14.4864 3.33329 14.292 3.33329C14.2087 3.33329 14.1288 3.35065 14.0524 3.38538C13.976 3.4201 13.9031 3.47218 13.8337 3.54163L12.792 4.58329C12.8614 4.8194 12.8753 5.05204 12.8337 5.28121C12.792 5.51038 12.7087 5.72218 12.5837 5.91663L10.292 3.58329C10.4864 3.45829 10.6948 3.37843 10.917 3.34371C11.1392 3.30899 11.3614 3.33329 11.5837 3.41663L12.6253 2.37496C12.8475 2.15274 13.101 1.97913 13.3857 1.85413C13.6705 1.72913 13.9725 1.66663 14.292 1.66663C14.9587 1.66663 15.5212 1.89579 15.9795 2.35413C16.4378 2.81246 16.667 3.37496 16.667 4.04163V10.8333H18.3337V15.8333C18.3337 16.2916 18.1705 16.684 17.8441 17.0104C17.5177 17.3368 17.1253 17.5 16.667 17.5C16.667 17.7361 16.5871 17.934 16.4274 18.0937C16.2677 18.2534 16.0698 18.3333 15.8337 18.3333H4.16699ZM3.33366 15.8333H16.667V12.5H3.33366V15.8333Z" fill="#333333"/>
</g>
</svg>
