<svg width="19" height="20" viewBox="0 0 19 20" fill="none" xmlns="http://www.w3.org/2000/svg">
<mask id="mask0_518_238" style="mask-type:alpha" maskUnits="userSpaceOnUse" x="0" y="0" width="19" height="20">
<rect y="0.5" width="19" height="19" fill="#D9D9D9"/>
</mask>
<g mask="url(#mask0_518_238)">
<path d="M0.791504 15.5416V3.66663H2.37484V11.5833H8.70817V5.24996H15.0415C15.9123 5.24996 16.6578 5.56003 17.278 6.18017C17.8981 6.80031 18.2082 7.54579 18.2082 8.41663V15.5416H16.6248V13.1666H2.37484V15.5416H0.791504ZM5.5415 10.7916C4.88178 10.7916 4.32102 10.5607 3.85921 10.0989C3.39741 9.63711 3.1665 9.07635 3.1665 8.41663C3.1665 7.7569 3.39741 7.19614 3.85921 6.73433C4.32102 6.27253 4.88178 6.04163 5.5415 6.04163C6.20123 6.04163 6.76199 6.27253 7.2238 6.73433C7.6856 7.19614 7.9165 7.7569 7.9165 8.41663C7.9165 9.07635 7.6856 9.63711 7.2238 10.0989C6.76199 10.5607 6.20123 10.7916 5.5415 10.7916ZM10.2915 11.5833H16.6248V8.41663C16.6248 7.98121 16.4698 7.60847 16.1597 7.2984C15.8497 6.98833 15.4769 6.83329 15.0415 6.83329H10.2915V11.5833ZM5.5415 9.20829C5.76581 9.20829 5.95383 9.13242 6.10557 8.98069C6.2573 8.82895 6.33317 8.64093 6.33317 8.41663C6.33317 8.19232 6.2573 8.0043 6.10557 7.85256C5.95383 7.70083 5.76581 7.62496 5.5415 7.62496C5.3172 7.62496 5.12918 7.70083 4.97744 7.85256C4.82571 8.0043 4.74984 8.19232 4.74984 8.41663C4.74984 8.64093 4.82571 8.82895 4.97744 8.98069C5.12918 9.13242 5.3172 9.20829 5.5415 9.20829Z" fill="#333333"/>
</g>
</svg>
