<svg width="13" height="13" viewBox="0 0 13 13" fill="none" xmlns="http://www.w3.org/2000/svg">
<path d="M12.1313 12.875C10.6083 12.875 9.12379 12.5356 7.6776 11.8568C6.23142 11.178 4.95052 10.2807 3.8349 9.1651C2.71927 8.04948 1.82205 6.76858 1.14323 5.3224C0.46441 3.87622 0.125 2.39167 0.125 0.86875C0.125 0.65625 0.195833 0.479167 0.3375 0.3375C0.479167 0.195833 0.65625 0.125 0.86875 0.125H3.7375C3.90278 0.125 4.05035 0.178125 4.18021 0.284375C4.31007 0.390625 4.38681 0.526389 4.41042 0.691667L4.87083 3.17083C4.89444 3.33611 4.89149 3.48663 4.86198 3.6224C4.83247 3.75816 4.76458 3.87917 4.65833 3.98542L2.94062 5.72083C3.43646 6.57083 4.0592 7.36771 4.80885 8.11146C5.55851 8.85521 6.38194 9.49861 7.27917 10.0417L8.94375 8.37708C9.05 8.27083 9.18871 8.19115 9.3599 8.13802C9.53108 8.0849 9.69931 8.07014 9.86458 8.09375L12.3083 8.58958C12.4736 8.625 12.6094 8.70469 12.7156 8.82865C12.8219 8.9526 12.875 9.09722 12.875 9.2625V12.1313C12.875 12.3438 12.8042 12.5208 12.6625 12.6625C12.5208 12.8042 12.3438 12.875 12.1313 12.875ZM2.26771 4.375L3.43646 3.20625L3.13542 1.54167H1.55938C1.6184 2.02569 1.70104 2.50382 1.80729 2.97604C1.91354 3.44826 2.06701 3.91458 2.26771 4.375ZM8.60729 10.7146C9.06771 10.9153 9.53698 11.0747 10.0151 11.1927C10.4932 11.3108 10.9743 11.3875 11.4583 11.4229V9.86458L9.79375 9.52812L8.60729 10.7146Z" fill="white"/>
</svg>
