<svg width="12" height="12" viewBox="0 0 12 12" fill="none" xmlns="http://www.w3.org/2000/svg">
<path d="M10.6375 11.25C9.38333 11.25 8.16076 10.9705 6.96979 10.4115C5.77882 9.85243 4.72396 9.11354 3.80521 8.19479C2.88646 7.27604 2.14757 6.22118 1.58854 5.03021C1.02951 3.83924 0.75 2.61667 0.75 1.3625C0.75 1.1875 0.808333 1.04167 0.925 0.925C1.04167 0.808333 1.1875 0.75 1.3625 0.75H3.725C3.86111 0.75 3.98264 0.79375 4.08958 0.88125C4.19653 0.96875 4.25972 1.08056 4.27917 1.21667L4.65833 3.25833C4.67778 3.39444 4.67535 3.5184 4.65104 3.63021C4.62674 3.74201 4.57083 3.84167 4.48333 3.92917L3.08333 5.35833C3.49167 6.05833 4.00208 6.71458 4.61458 7.32708C5.22708 7.93958 5.90278 8.46944 6.64167 8.91667L8.0125 7.54583C8.1 7.45833 8.21424 7.39271 8.35521 7.34896C8.49618 7.30521 8.63472 7.29306 8.77083 7.3125L10.7833 7.72083C10.9194 7.75 11.0312 7.81563 11.1187 7.91771C11.2062 8.01979 11.25 8.13889 11.25 8.275V10.6375C11.25 10.8125 11.1917 10.9583 11.075 11.075C10.9583 11.1917 10.8125 11.25 10.6375 11.25Z" fill="black"/>
</svg>
