<svg width="22" height="22" viewBox="0 0 22 22" fill="none" xmlns="http://www.w3.org/2000/svg">
<path d="M11.9441 1.83398C12.9757 1.83569 13.4985 1.84114 13.9503 1.85459L14.1282 1.86041C14.3337 1.86772 14.5365 1.87688 14.7809 1.88834C15.7564 1.93341 16.4218 2.08772 17.0061 2.31459C17.6103 2.54757 18.1206 2.8623 18.6301 3.37181C19.1389 3.88132 19.4536 4.39313 19.6874 4.99584C19.9134 5.57945 20.0678 6.24556 20.1136 7.22105C20.1246 7.46549 20.1334 7.66826 20.1406 7.87382L20.1464 8.05172C20.1598 8.50341 20.1659 9.02626 20.1678 10.0579L20.1686 10.7414C20.1686 10.8249 20.1686 10.9111 20.1686 11L20.1686 11.2586L20.168 11.9422C20.1663 12.9738 20.1609 13.4966 20.1474 13.9483L20.1415 14.1262C20.1343 14.3317 20.1251 14.5345 20.1136 14.779C20.0685 15.7544 19.9134 16.4198 19.6874 17.0042C19.4544 17.6084 19.1389 18.1187 18.6301 18.6282C18.1206 19.1369 17.608 19.4517 17.0061 19.6854C16.4218 19.9115 15.7564 20.0659 14.7809 20.1117C14.5365 20.1226 14.3337 20.1314 14.1282 20.1386L13.9503 20.1444C13.4985 20.1578 12.9757 20.1639 11.9441 20.1659L11.2606 20.1666C11.1771 20.1667 11.0909 20.1667 11.002 20.1667L10.7434 20.1666L10.0598 20.1661C9.02821 20.1643 8.50537 20.1589 8.05368 20.1454L7.87577 20.1396C7.67021 20.1323 7.46744 20.1232 7.223 20.1117C6.24751 20.0666 5.58293 19.9115 4.9978 19.6854C4.39432 19.4524 3.88328 19.1369 3.37377 18.6282C2.86425 18.1187 2.5503 17.6061 2.31655 17.0042C2.08967 16.4198 1.93613 15.7544 1.8903 14.779C1.87941 14.5345 1.87052 14.3317 1.86333 14.1262L1.85756 13.9483C1.84415 13.4966 1.83804 12.9738 1.83606 11.9422L1.83594 10.0579C1.83764 9.02626 1.8431 8.50341 1.85654 8.05172L1.86237 7.87382C1.86967 7.66826 1.87884 7.46549 1.8903 7.22105C1.93536 6.2448 2.08967 5.58022 2.31655 4.99584C2.54953 4.39236 2.86425 3.88132 3.37377 3.37181C3.88328 2.8623 4.39509 2.54834 4.9978 2.31459C5.58217 2.08772 6.24675 1.93418 7.223 1.88834C7.46744 1.87745 7.67021 1.86857 7.87577 1.86137L8.05368 1.85561C8.50537 1.8422 9.02821 1.83608 10.0598 1.8341L11.9441 1.83398ZM11.002 6.41668C8.46931 6.41668 6.41863 8.46958 6.41863 11C6.41863 13.5327 8.47153 15.5834 11.002 15.5834C13.5346 15.5834 15.5853 13.5304 15.5853 11C15.5853 8.46735 13.5323 6.41668 11.002 6.41668ZM11.002 8.25001C12.5208 8.25001 13.752 9.48074 13.752 11C13.752 12.5189 12.5212 13.75 11.002 13.75C9.48316 13.75 8.25196 12.5192 8.25196 11C8.25196 9.4812 9.4827 8.25001 11.002 8.25001ZM15.8145 5.04168C15.1826 5.04168 14.6686 5.55492 14.6686 6.18673C14.6686 6.81853 15.1819 7.33257 15.8145 7.33257C16.4462 7.33257 16.9603 6.81933 16.9603 6.18673C16.9603 5.55492 16.4454 5.04088 15.8145 5.04168Z" fill="white"/>
</svg>
