<svg width="10" height="12" viewBox="0 0 10 12" fill="none" xmlns="http://www.w3.org/2000/svg">
<path d="M5.00065 5.99984C5.32148 5.99984 5.59614 5.8856 5.82461 5.65713C6.05308 5.42866 6.16732 5.154 6.16732 4.83317C6.16732 4.51234 6.05308 4.23768 5.82461 4.00921C5.59614 3.78074 5.32148 3.6665 5.00065 3.6665C4.67982 3.6665 4.40516 3.78074 4.17669 4.00921C3.94822 4.23768 3.83398 4.51234 3.83398 4.83317C3.83398 5.154 3.94822 5.42866 4.17669 5.65713C4.40516 5.8856 4.67982 5.99984 5.00065 5.99984ZM5.00065 11.8332C3.43537 10.5012 2.26628 9.26407 1.49336 8.12171C0.720443 6.97935 0.333984 5.92206 0.333984 4.94984C0.333984 3.4915 0.803082 2.3297 1.74128 1.46442C2.67947 0.599143 3.76593 0.166504 5.00065 0.166504C6.23537 0.166504 7.32183 0.599143 8.26003 1.46442C9.19822 2.3297 9.66732 3.4915 9.66732 4.94984C9.66732 5.92206 9.28086 6.97935 8.50794 8.12171C7.73503 9.26407 6.56593 10.5012 5.00065 11.8332Z" fill="black"/>
</svg>
