<svg width="20" height="20" viewBox="0 0 20 20" fill="none" xmlns="http://www.w3.org/2000/svg">
<mask id="mask0_518_323" style="mask-type:alpha" maskUnits="userSpaceOnUse" x="0" y="0" width="20" height="20">
<rect width="20" height="20" fill="#D9D9D9"/>
</mask>
<g mask="url(#mask0_518_323)">
<path d="M3.33301 17.5V15.8333H16.6663V17.5H3.33301ZM6.66634 14.1667C5.74967 14.1667 4.96495 13.8403 4.31217 13.1875C3.6594 12.5347 3.33301 11.75 3.33301 10.8333V2.5H16.6663C17.1247 2.5 17.517 2.66319 17.8434 2.98958C18.1698 3.31597 18.333 3.70833 18.333 4.16667V6.66667C18.333 7.125 18.1698 7.51736 17.8434 7.84375C17.517 8.17014 17.1247 8.33333 16.6663 8.33333H14.9997V10.8333C14.9997 11.75 14.6733 12.5347 14.0205 13.1875C13.3677 13.8403 12.583 14.1667 11.6663 14.1667H6.66634ZM6.66634 12.5H11.6663C12.1247 12.5 12.517 12.3368 12.8434 12.0104C13.1698 11.684 13.333 11.2917 13.333 10.8333V4.16667H4.99967V10.8333C4.99967 11.2917 5.16287 11.684 5.48926 12.0104C5.81565 12.3368 6.20801 12.5 6.66634 12.5ZM14.9997 6.66667H16.6663V4.16667H14.9997V6.66667Z" fill="#333333"/>
</g>
</svg>
