<svg width="15" height="13" viewBox="0 0 15 13" fill="none" xmlns="http://www.w3.org/2000/svg">
<path d="M1.83268 12.1666C1.4431 12.1666 1.10959 12.0279 0.832162 11.7504C0.554731 11.473 0.416016 11.1395 0.416016 10.7499V2.24992C0.416016 1.86034 0.554731 1.52683 0.832162 1.2494C1.10959 0.971967 1.4431 0.833252 1.83268 0.833252H13.166C13.5556 0.833252 13.8891 0.971967 14.1665 1.2494C14.444 1.52683 14.5827 1.86034 14.5827 2.24992V10.7499C14.5827 11.1395 14.444 11.473 14.1665 11.7504C13.8891 12.0279 13.5556 12.1666 13.166 12.1666H1.83268ZM7.49935 7.20825L1.83268 3.66659V10.7499H13.166V3.66659L7.49935 7.20825ZM7.49935 5.79158L13.166 2.24992H1.83268L7.49935 5.79158ZM1.83268 3.66659V2.24992V10.7499V3.66659Z" fill="white"/>
</svg>
