<svg width="20" height="20" viewBox="0 0 20 20" fill="none" xmlns="http://www.w3.org/2000/svg">
<path d="M9.16764 19.1249V17.4582C7.43153 17.2638 5.94195 16.545 4.69889 15.302C3.45584 14.0589 2.73709 12.5693 2.54264 10.8332H0.875977V9.16654H2.54264C2.73709 7.43043 3.45584 5.94085 4.69889 4.69779C5.94195 3.45474 7.43153 2.73599 9.16764 2.54154V0.874878H10.8343V2.54154C12.5704 2.73599 14.06 3.45474 15.3031 4.69779C16.5461 5.94085 17.2649 7.43043 17.4593 9.16654H19.126V10.8332H17.4593C17.2649 12.5693 16.5461 14.0589 15.3031 15.302C14.06 16.545 12.5704 17.2638 10.8343 17.4582V19.1249H9.16764ZM10.001 15.8332C11.6121 15.8332 12.9871 15.2638 14.126 14.1249C15.2649 12.986 15.8343 11.611 15.8343 9.99988C15.8343 8.38877 15.2649 7.01377 14.126 5.87488C12.9871 4.73599 11.6121 4.16654 10.001 4.16654C8.38987 4.16654 7.01487 4.73599 5.87598 5.87488C4.73709 7.01377 4.16764 8.38877 4.16764 9.99988C4.16764 11.611 4.73709 12.986 5.87598 14.1249C7.01487 15.2638 8.38987 15.8332 10.001 15.8332ZM10.001 13.3332C9.08431 13.3332 8.29959 13.0068 7.64681 12.354C6.99403 11.7013 6.66764 10.9165 6.66764 9.99988C6.66764 9.08321 6.99403 8.29849 7.64681 7.64571C8.29959 6.99293 9.08431 6.66654 10.001 6.66654C10.9176 6.66654 11.7024 6.99293 12.3551 7.64571C13.0079 8.29849 13.3343 9.08321 13.3343 9.99988C13.3343 10.9165 13.0079 11.7013 12.3551 12.354C11.7024 13.0068 10.9176 13.3332 10.001 13.3332Z" fill="#1C1B1F"/>
</svg>
