<svg width="20" height="20" viewBox="0 0 20 20" fill="none" xmlns="http://www.w3.org/2000/svg">
<mask id="mask0_518_233" style="mask-type:alpha" maskUnits="userSpaceOnUse" x="0" y="0" width="20" height="20">
<rect width="20" height="20" fill="#D9D9D9"/>
</mask>
<g mask="url(#mask0_518_233)">
<path d="M4.33333 17.4999C3.81944 17.4999 3.38542 17.3229 3.03125 16.9687C2.67708 16.6145 2.5 16.1805 2.5 15.6666V4.24994C2.5 3.84716 2.6875 3.56591 3.0625 3.40619C3.4375 3.24647 3.76389 3.3055 4.04167 3.58328L5.91667 5.45828L4.79167 6.58328L5.375 7.16661L6.5 6.04161L8.66667 8.20828L7.54167 9.33328L8.125 9.91661L9.25 8.79161L11.4167 10.9583L10.2917 12.0833L10.875 12.6666L12 11.5416L14.1667 13.7083L13.0417 14.8333L13.625 15.4166L14.75 14.2916L16.4167 15.9583C16.6944 16.2361 16.7535 16.5624 16.5938 16.9374C16.434 17.3124 16.1528 17.4999 15.75 17.4999H4.33333ZM5 14.9999H11.9167L5 8.08328V14.9999Z" fill="#333333"/>
</g>
</svg>
